<?xml version="1.0" standalone="no"?>
<!DOCTYPE svg PUBLIC "-//W3C//DTD SVG 20010904//EN"
 "http://www.w3.org/TR/2001/REC-SVG-20010904/DTD/svg10.dtd">
<svg version="1.0" xmlns="http://www.w3.org/2000/svg"
 width="1216.000000pt" height="1216.000000pt" viewBox="0 0 1216.000000 1216.000000"
 preserveAspectRatio="xMidYMid meet">
<metadata>
Created by potrace 1.14, written by Peter Selinger 2001-2017
</metadata>
<g transform="translate(0.000000,1216.000000) scale(0.100000,-0.100000)"
fill="#000000" stroke="none">
<path d="M7570 10231 c0 -5 -28 -24 -62 -41 -35 -17 -75 -39 -90 -48 -14 -9
-47 -30 -73 -46 -26 -15 -56 -37 -66 -47 -10 -10 -23 -19 -27 -19 -13 0 -118
-110 -144 -150 -13 -20 -31 -51 -40 -70 -25 -52 -117 -250 -135 -290 -8 -19
-19 -42 -24 -50 -5 -8 -12 -22 -16 -30 -3 -8 -24 -53 -46 -100 -52 -114 -61
-134 -59 -142 1 -5 -2 -8 -7 -8 -5 0 -13 -10 -17 -22 -3 -13 -21 -53 -40 -91
-18 -37 -33 -68 -33 -70 2 -5 -37 -83 -44 -88 -5 -3 -9 -10 -9 -15 0 -5 -13
-38 -30 -74 -18 -36 -32 -67 -32 -70 -1 -3 -13 -30 -28 -60 -14 -30 -43 -91
-63 -135 -62 -134 -70 -150 -80 -157 -5 -4 -7 -8 -3 -8 4 0 -6 -26 -21 -57
-16 -32 -41 -85 -56 -118 -15 -33 -56 -120 -91 -193 -35 -74 -64 -136 -64
-138 0 -3 -24 -55 -54 -117 -30 -62 -69 -146 -89 -187 -19 -41 -54 -115 -77
-165 -23 -49 -57 -121 -75 -160 -18 -38 -54 -114 -79 -168 -52 -110 -105 -223
-146 -312 -15 -33 -53 -114 -84 -179 -31 -65 -66 -140 -78 -165 -11 -25 -45
-98 -75 -161 -87 -183 -107 -225 -108 -230 -2 -8 -74 -160 -106 -223 -16 -31
-29 -59 -29 -62 -1 -7 -164 -354 -216 -459 -13 -28 -24 -54 -24 -59 0 -5 -9
-21 -19 -35 -10 -15 -19 -29 -19 -32 -1 -12 -23 -62 -75 -170 -30 -63 -64
-135 -75 -160 -11 -25 -48 -103 -83 -175 -34 -71 -63 -132 -63 -135 -1 -3 -17
-39 -37 -80 -70 -146 -99 -211 -99 -220 0 -6 -4 -10 -10 -10 -5 0 -10 -6 -10
-14 0 -8 -17 -49 -39 -92 -44 -90 -85 -177 -86 -184 0 -3 -11 -24 -23 -46 -11
-23 -18 -44 -15 -48 4 -3 1 -6 -5 -6 -7 0 -12 -4 -12 -10 0 -5 -22 -56 -49
-112 -99 -208 -151 -320 -151 -329 0 -5 -5 -9 -12 -9 -6 0 -9 -3 -5 -6 3 -3
-3 -22 -13 -42 -10 -21 -35 -73 -55 -117 -20 -44 -40 -87 -46 -95 -5 -8 -12
-22 -15 -30 -4 -8 -22 -48 -40 -87 -18 -40 -36 -84 -40 -98 -3 -14 -10 -28
-15 -31 -5 -3 -7 -9 -5 -12 2 -4 -1 -34 -8 -67 -20 -102 -11 -226 28 -375 2
-8 10 -28 17 -45 7 -16 12 -33 11 -37 -1 -5 2 -8 8 -8 6 0 9 -3 8 -7 -3 -13
24 -64 62 -119 34 -50 126 -154 136 -154 3 0 14 -9 26 -19 22 -21 158 -96 158
-87 0 3 12 1 28 -6 15 -6 66 -12 114 -14 93 -3 158 13 217 55 16 12 34 21 41
21 6 0 9 4 5 9 -3 5 4 12 14 16 25 8 113 107 164 183 20 31 41 62 45 67 4 6
15 25 22 42 8 18 18 33 22 33 5 0 8 4 8 9 0 9 50 118 137 301 25 52 46 101 46
108 0 6 4 12 9 12 4 0 8 4 8 9 0 5 24 60 53 122 125 265 177 378 177 384 0 4
10 21 22 38 13 18 22 33 20 35 -1 1 8 26 22 55 13 28 40 88 60 132 20 44 46
97 57 118 11 20 18 37 15 37 -3 0 8 23 24 50 16 27 28 50 25 50 -2 0 11 30 29
67 31 62 54 111 136 288 56 120 112 241 126 269 8 16 14 35 14 42 0 7 3 14 8
16 7 3 19 27 62 123 13 28 43 93 68 145 25 52 46 97 47 100 4 14 77 168 196
418 27 56 49 104 49 106 0 2 26 57 57 122 31 66 57 121 58 124 1 3 16 36 34
74 17 38 48 103 68 145 94 201 112 240 136 291 13 30 42 91 63 135 21 44 37
83 36 88 -1 4 3 7 8 7 6 0 10 6 10 13 0 6 25 63 55 125 30 63 55 115 55 117 0
3 93 202 138 295 15 30 27 57 28 60 0 3 16 37 34 75 18 39 33 73 32 78 -1 4 2
7 8 7 6 0 9 3 8 8 -1 4 13 39 32 77 18 39 49 106 70 150 66 141 102 218 156
333 30 62 54 115 54 117 0 2 32 70 71 152 40 81 71 149 70 151 0 1 10 23 23
50 14 26 54 110 89 187 36 77 91 194 122 260 32 66 58 126 58 133 0 6 4 12 9
12 4 0 8 4 8 9 0 5 29 71 65 146 36 76 65 139 65 141 0 1 24 54 54 116 90 189
106 226 112 258 4 16 11 30 16 30 5 0 6 5 3 10 -4 6 -1 26 5 46 16 48 16 209
0 264 -8 25 -13 48 -12 52 2 11 -65 134 -87 160 -45 52 -58 65 -96 94 -64 50
-177 102 -255 118 -14 3 -36 8 -50 11 -53 12 -190 16 -190 6z"/>
<path d="M2869 9146 c-2 -2 -29 -6 -59 -9 -98 -10 -141 -24 -240 -77 -71 -38
-102 -68 -1490 -1470 -918 -926 -919 -928 -958 -978 -39 -50 -100 -184 -109
-242 -9 -54 -11 -197 -3 -240 17 -93 61 -210 82 -218 4 -2 8 -8 8 -14 0 -20
75 -100 396 -424 1684 -1700 1945 -1963 2004 -2014 43 -37 136 -82 215 -105
68 -20 208 -27 269 -13 22 5 50 11 61 12 21 3 155 66 189 88 121 82 222 230
262 382 27 103 18 290 -18 359 -5 10 -11 27 -13 38 -9 48 -90 154 -207 274
-70 72 -328 333 -573 580 -245 248 -469 474 -497 503 -27 28 -55 52 -61 52 -6
0 -8 2 -5 5 2 3 -35 44 -84 92 -175 173 -242 315 -240 508 2 123 17 197 59
279 47 94 79 130 422 476 187 189 341 348 341 352 0 4 4 8 8 8 5 0 71 63 148
141 76 77 239 241 360 364 122 123 237 245 255 272 19 26 38 51 42 54 5 3 9 9
8 12 0 4 9 26 19 50 91 206 62 462 -75 641 -103 136 -266 235 -412 250 -26 3
-60 8 -74 11 -14 2 -28 3 -30 1z"/>
<path d="M9269 9146 c-2 -2 -24 -5 -49 -7 -25 -1 -55 -6 -68 -11 -12 -4 -34
-10 -48 -12 -75 -14 -200 -91 -282 -176 -68 -69 -145 -210 -158 -285 -2 -11
-7 -42 -12 -70 -10 -61 -7 -162 7 -212 6 -20 8 -40 5 -45 -3 -4 0 -8 7 -8 7 0
10 -3 6 -6 -8 -9 37 -109 77 -170 19 -27 179 -196 356 -375 177 -178 333 -337
346 -352 13 -16 24 -27 24 -24 0 2 44 -40 98 -95 53 -55 213 -216 354 -359
142 -142 276 -282 299 -311 140 -177 173 -414 89 -629 -19 -48 -79 -149 -103
-174 -10 -10 -1335 -1351 -1403 -1419 -56 -57 -122 -172 -144 -256 -43 -160
-28 -315 45 -461 32 -65 45 -84 93 -137 12 -14 22 -29 22 -33 0 -5 5 -9 10 -9
6 0 24 -14 40 -30 16 -17 34 -30 39 -30 5 0 16 -6 23 -14 20 -19 105 -60 158
-75 25 -7 56 -17 70 -21 28 -8 202 -5 238 4 12 3 30 8 40 10 48 11 130 51 185
90 34 23 140 121 235 217 95 96 431 435 747 754 316 319 763 771 995 1004 231
233 422 433 426 443 3 10 9 18 13 18 5 0 14 15 22 33 7 17 15 34 18 37 14 12
31 51 31 70 0 11 4 20 8 20 5 0 9 6 9 13 0 6 4 26 8 42 15 61 14 210 -1 275
-34 149 -83 229 -239 387 -168 171 -1310 1323 -1812 1829 -409 413 -470 466
-568 506 -84 34 -90 36 -155 43 -25 2 -57 7 -71 10 -14 2 -28 3 -30 1z"/>
</g>
</svg>
